<svg class="svg-symbols" style="position: absolute; clip: rect(0, 0, 0, 0);" xmlns="http://www.w3.org/2000/svg">
<symbol id="icon-svg-burger" viewBox="0 0 24 24"><path fill-rule="evenodd" clip-rule="evenodd" d="M3 18h18v-2H3v2zm0-5h18v-2H3v2zm0-7v2h18V6H3z" fill="#fff"/></symbol>
<symbol id="icon-svg-close-mobile" viewBox="0 0 40 44"><path fill-rule="evenodd" clip-rule="evenodd" d="M16.063 16.337a1.2 1.2 0 0 0-1.697 1.697l3.952 3.951-3.952 3.952a1.2 1.2 0 1 0 1.697 1.697l3.952-3.952 3.951 3.952a1.2 1.2 0 0 0 1.697-1.697l-3.951-3.952 3.951-3.951a1.2 1.2 0 0 0-1.697-1.697l-3.951 3.951-3.952-3.951z" fill="#fff"/></symbol>
<symbol id="icon-svg-close" viewBox="0 0 60 60"><path d="M0 0h60v60H0z"/><path d="M13.586 13.997l32 32M46.414 14.003l-32 32" stroke="#2D333C" stroke-linecap="round" stroke-width="3.75"/></symbol>
<symbol id="icon-svg-phone" viewBox="0 0 24 24"><path fill="currentColor" d="M5 4h4l2 5-2.5 1.5a11 11 0 0 0 5 5L15 13l5 2v4a2 2 0 0 1-2 2A16 16 0 0 1 3 6a2 2 0 0 1 2-2z"/></symbol>
</svg>