<svg width="40" height="44" viewBox="0 0 40 44" fill="none" xmlns="http://www.w3.org/2000/svg">
<path fill-rule="evenodd" clip-rule="evenodd" d="M16.0631 16.3369C15.8368 16.1183 15.5337 15.9973 15.2191 16C14.9044 16.0028 14.6035 16.129 14.381 16.3515C14.1585 16.574 14.0323 16.8749 14.0295 17.1896C14.0268 17.5042 14.1478 17.8073 14.3663 18.0337L18.3179 21.9853L14.3663 25.9369C14.2517 26.0476 14.1603 26.18 14.0974 26.3264C14.0345 26.4728 14.0014 26.6302 14 26.7896C13.9987 26.9489 14.029 27.1069 14.0894 27.2544C14.1497 27.4019 14.2388 27.5359 14.3515 27.6485C14.4641 27.7612 14.5981 27.8503 14.7456 27.9106C14.8931 27.971 15.0511 28.0013 15.2104 28C15.3698 27.9986 15.5272 27.9655 15.6736 27.9026C15.82 27.8397 15.9524 27.7483 16.0631 27.6337L20.0147 23.6821L23.9663 27.6337C24.1927 27.8522 24.4958 27.9732 24.8104 27.9705C25.1251 27.9677 25.426 27.8415 25.6485 27.619C25.871 27.3965 25.9972 27.0956 26 26.7809C26.0027 26.4663 25.8817 26.1632 25.6631 25.9369L21.7115 21.9853L25.6631 18.0337C25.8817 17.8073 26.0027 17.5042 26 17.1896C25.9972 16.8749 25.871 16.574 25.6485 16.3515C25.426 16.129 25.1251 16.0028 24.8104 16C24.4958 15.9973 24.1927 16.1183 23.9663 16.3369L20.0147 20.2885L16.0631 16.3369Z" fill="white"/>
</svg>
