<svg viewBox="0 0 229.867 139.379" xmlns="http://www.w3.org/2000/svg" xmlns:xlink="http://www.w3.org/1999/xlink" width="229.867188" height="139.379272" fill="none" customFrame="#000000">
	<g id="Group 113">
		<path id="Ellipse 71" d="M94.2799 63.8679C94.2799 65.6859 92.8024 67.1598 90.9798 67.1598C89.1572 67.1598 87.6797 65.6859 87.6797 63.8679C87.6797 62.0498 89.1572 60.576 90.9798 60.576C92.8024 60.576 94.2799 62.0498 94.2799 63.8679Z" fill="rgb(142,143,158)" fill-rule="nonzero" />
		<path id="Ellipse 71" d="M90.9798 67.1598C92.8024 67.1598 94.2799 65.6859 94.2799 63.8679C94.2799 62.0498 92.8024 60.576 90.9798 60.576C89.1572 60.576 87.6797 62.0498 87.6797 63.8679C87.6797 65.6859 89.1572 67.1598 90.9798 67.1598ZM90.7113 63.1913C90.794 63.1578 90.8835 63.141 90.9798 63.141C91.0761 63.141 91.1656 63.1578 91.2483 63.1913C91.3344 63.2262 91.4131 63.2792 91.4844 63.3504C91.5544 63.4202 91.6072 63.4972 91.6429 63.5815C91.6799 63.6692 91.6984 63.7646 91.6984 63.8679C91.6984 63.9712 91.6799 64.0666 91.6429 64.1542C91.6072 64.2385 91.5544 64.3156 91.4844 64.3854C91.4131 64.4566 91.3344 64.5096 91.2483 64.5445C91.1656 64.578 91.0761 64.5947 90.9798 64.5947C90.8835 64.5947 90.794 64.578 90.7113 64.5445C90.6252 64.5096 90.5465 64.4566 90.4752 64.3854C90.4052 64.3156 90.3524 64.2385 90.3167 64.1542C90.2797 64.0666 90.2612 63.9712 90.2612 63.8679C90.2612 63.7646 90.2797 63.6692 90.3167 63.5816C90.3524 63.4972 90.4052 63.4202 90.4752 63.3504C90.5465 63.2792 90.6252 63.2262 90.7113 63.1913Z" fill="rgb(142,143,158)" fill-rule="evenodd" />
		<path id="Union" d="M168.83 37.4429C168.83 27.7369 160.961 19.8686 151.253 19.8686C141.546 19.8686 133.676 27.7369 133.676 37.4429C133.676 38.9436 133.865 40.4004 134.219 41.7909L129.094 47.3807L136.754 47.3807C139.923 51.9926 145.235 55.0172 151.253 55.0172C160.961 55.0172 168.83 47.1489 168.83 37.4429Z" fill="rgb(217,217,217)" fill-opacity="0" fill-rule="evenodd" />
		<path id="Union" d="M155.918 16.352L155.918 16.3521Q157.828 16.7734 159.66 17.5483Q161.502 18.3272 163.143 19.4103L163.143 19.4103Q164.956 20.6067 166.523 22.1741Q168.093 23.7433 169.29 25.558Q170.372 27.1971 171.15 29.0365C172.282 31.7137 172.849 34.5159 172.849 37.4429C172.849 40.3699 172.282 43.172 171.15 45.8493Q170.372 47.6888 169.29 49.328L169.29 49.3281L169.29 49.3282Q168.093 51.1426 166.523 52.7117C164.532 54.7027 162.244 56.2447 159.66 57.3375Q157.828 58.1124 155.917 58.5338Q153.641 59.036 151.253 59.036Q148.406 59.036 145.744 58.335Q143.31 57.6941 141.03 56.4673Q138.751 55.2408 136.873 53.5653Q135.749 52.5627 134.769 51.3994L119.957 51.3994L129.883 40.573Q129.658 39.0256 129.658 37.4429Q129.658 35.0565 130.16 32.7809L130.16 32.7808L130.16 32.7808Q130.581 30.8696 131.356 29.0365Q132.135 27.1969 133.216 25.5576Q134.414 23.7432 135.983 22.1741Q137.551 20.6066 139.363 19.4103L139.363 19.4103Q141.004 18.3272 142.846 17.5483Q144.678 16.7734 146.589 16.3521L146.589 16.352Q148.866 15.8498 151.253 15.8498Q153.641 15.8498 155.918 16.352ZM151.253 19.8686C160.961 19.8686 168.83 27.7369 168.83 37.4429C168.83 47.1489 160.961 55.0172 151.253 55.0172C145.235 55.0172 139.923 51.9926 136.754 47.3807L129.094 47.3807L134.219 41.7909C133.865 40.4004 133.676 38.9436 133.676 37.4429C133.676 27.7369 141.546 19.8686 151.253 19.8686Z" fill="rgb(142,143,158)" fill-rule="evenodd" />
		<path id="Subtract" d="M103.779 56.3009L92.8672 56.3009C93.247 58.9738 95.5449 61.0291 98.323 61.0291C101.101 61.0291 103.399 58.9738 103.779 56.3009Z" fill="rgb(142,143,158)" fill-rule="evenodd" />
		<path id="Subtract" d="M92.8672 56.3009C93.247 58.9738 95.5449 61.0291 98.323 61.0291C101.101 61.0291 103.399 58.9738 103.779 56.3009L92.8672 56.3009Z" fill-rule="evenodd" stroke="rgb(142,143,158)" stroke-opacity="0" stroke-width="4.01876307" />
		<path id="Rectangle 12417" d="M86.875 125.022L100.384 125.022C106.985 125.022 112.336 130.373 112.336 136.974L112.336 138.468L86.875 138.468L86.875 125.022Z" fill="rgb(217,217,217)" fill-opacity="0" fill-rule="nonzero" />
		<path id="Rectangle 12417" d="M90.8938 129.041L100.384 129.041C101.479 129.041 102.495 129.234 103.429 129.622C104.364 130.009 105.219 130.59 105.994 131.364C106.768 132.139 107.349 132.994 107.736 133.928C107.807 134.099 107.871 134.273 107.929 134.449L90.8938 134.449L90.8938 129.041ZM86.875 129.041L86.875 125.022L100.384 125.022C106.119 125.022 110.91 129.061 112.069 134.449C112.244 135.263 112.336 136.108 112.336 136.974L112.336 138.468L86.875 138.468L86.875 129.041Z" fill="rgb(142,143,158)" fill-rule="evenodd" />
		<path id="Line 51" d="M20.5938 137.37L217.471 137.37" stroke="rgb(142,143,158)" stroke-width="4.01876307" />
		<g id="Group 112">
			<circle id="Ellipse 74" cx="142.287094" cy="36.8827362" r="2.99022007" fill="rgb(142,143,158)" />
			<circle id="Ellipse 74" cx="142.287094" cy="36.8827362" r="2.99022007" stroke="rgb(142,143,158)" stroke-opacity="0" stroke-width="4.01876307" />
			<circle id="Ellipse 75" cx="151.263657" cy="36.8827362" r="2.99022007" fill="rgb(142,143,158)" />
			<circle id="Ellipse 75" cx="151.263657" cy="36.8827362" r="2.99022007" stroke="rgb(142,143,158)" stroke-opacity="0" stroke-width="4.01876307" />
			<circle id="Ellipse 76" cx="160.248032" cy="36.8827362" r="2.99022007" fill="rgb(142,143,158)" />
			<circle id="Ellipse 76" cx="160.248032" cy="36.8827362" r="2.99022007" stroke="rgb(142,143,158)" stroke-opacity="0" stroke-width="4.01876307" />
		</g>
		<g id="Group 110">
			<circle id="Ellipse 74" cx="2.99009538" cy="99.6248932" r="2.99009538" fill="rgb(142,143,158)" />
			<circle id="Ellipse 74" cx="2.99009538" cy="99.6248932" r="2.99009538" stroke="rgb(142,143,158)" stroke-opacity="0" stroke-width="4.01876354" />
			<circle id="Ellipse 75" cx="11.9666576" cy="99.6248932" r="2.99009538" fill="rgb(142,143,158)" />
			<circle id="Ellipse 75" cx="11.9666576" cy="99.6248932" r="2.99009538" stroke="rgb(142,143,158)" stroke-opacity="0" stroke-width="4.01876354" />
			<circle id="Ellipse 76" cx="20.9510326" cy="99.6248932" r="2.99009538" fill="rgb(142,143,158)" />
			<circle id="Ellipse 76" cx="20.9510326" cy="99.6248932" r="2.99009538" stroke="rgb(142,143,158)" stroke-opacity="0" stroke-width="4.01876354" />
		</g>
		<g id="Group 111">
			<g id="Group 100">
				<path id="Union" d="M29.8062 13.1799C29.8062 5.90083 23.9038 0 16.6227 0C9.34162 0 3.43914 5.90083 3.43914 13.1799C3.43914 14.3047 3.58009 15.3966 3.84529 16.4389L0 20.6326L5.74775 20.6326C8.12397 24.0914 12.1084 26.3598 16.6227 26.3598C23.9038 26.3598 29.8062 20.4589 29.8062 13.1799Z" fill="rgb(217,217,217)" fill-opacity="0" fill-rule="evenodd" transform="matrix(-1,0,0,1,214.969,4.01868)" />
				<path id="Union" d="M20.3216 -3.62217L20.3216 -3.62216Q21.8518 -3.28621 23.3194 -2.66562Q24.7918 -2.04302 26.1031 -1.17652L26.1031 -1.17649Q27.5416 -0.225883 28.7861 1.01828Q30.0331 2.26494 30.9853 3.70633L30.9853 3.70637Q31.8498 5.01487 32.4713 6.48383C33.3737 8.61681 33.8249 10.8488 33.8249 13.1799C33.8249 15.5109 33.3737 17.743 32.4713 19.8759Q31.8498 21.3449 30.9854 22.6534L30.9853 22.6535Q30.0331 24.0948 28.7861 25.3415Q27.5415 26.5857 26.103 27.5363Q24.7918 28.4028 23.3194 29.0254Q21.8518 29.646 20.3217 29.9819L20.3216 29.9819Q18.5157 30.3784 16.6227 30.3784Q14.3605 30.3784 12.2443 29.8226Q10.3001 29.3119 8.47923 28.3321Q6.66194 27.3543 5.16456 26.0179Q4.44524 25.376 3.79975 24.6513L-9.13708 24.6513L-0.463136 15.1914Q-0.579521 14.1947 -0.579521 13.1799Q-0.579521 11.2886 -0.183498 9.48427Q0.152652 7.95273 0.774119 6.48383Q1.39563 5.01482 2.26008 3.7063L2.26009 3.70628Q3.2123 2.26491 4.45929 1.01828Q5.7038 -0.225895 7.14232 -1.17651L7.14233 -1.17652Q8.45355 -2.04302 9.92595 -2.66562Q11.3936 -3.2862 12.9237 -3.62215L12.9237 -3.62216Q14.7297 -4.01866 16.6227 -4.01866Q18.5157 -4.01866 20.3216 -3.62217ZM16.6227 0C23.9038 0 29.8062 5.90083 29.8062 13.1799C29.8062 20.4589 23.9038 26.3598 16.6227 26.3598C12.1084 26.3598 8.12397 24.0914 5.74775 20.6326L0 20.6326L3.84529 16.4389C3.58009 15.3966 3.43914 14.3047 3.43914 13.1799C3.43914 5.90083 9.34162 0 16.6227 0Z" fill="rgb(142,143,158)" fill-rule="evenodd" transform="matrix(-1,0,0,1,214.969,4.01868)" />
			</g>
			<path id="?" d="M197.206 19.4673L197.206 19.1628C197.206 18.3211 197.275 17.6501 197.414 17.15C197.558 16.6499 197.766 16.2488 198.038 15.9468C198.31 15.6398 198.642 15.36 199.033 15.1075C199.345 14.9094 199.622 14.7089 199.865 14.5059C200.113 14.2979 200.308 14.0751 200.452 13.8374C200.595 13.5997 200.667 13.3299 200.667 13.0278C200.667 12.7357 200.598 12.4782 200.459 12.2554C200.321 12.0325 200.13 11.8617 199.887 11.7429C199.65 11.6191 199.385 11.5572 199.093 11.5572C198.801 11.5572 198.526 11.624 198.268 11.7577C198.016 11.8914 197.808 12.0821 197.644 12.3296C197.486 12.5723 197.404 12.8669 197.399 13.2135L193.983 13.2135C193.997 12.1737 194.238 11.322 194.703 10.6585C195.173 9.99496 195.795 9.50475 196.567 9.18785C197.34 8.866 198.191 8.70507 199.122 8.70507C200.142 8.70507 201.049 8.86352 201.841 9.18042C202.638 9.49733 203.264 9.96525 203.72 10.5842C204.175 11.2031 204.403 11.9607 204.403 12.857C204.403 13.4462 204.304 13.9661 204.106 14.4167C203.908 14.8673 203.631 15.2659 203.274 15.6125C202.923 15.9542 202.509 16.2661 202.034 16.5484C201.663 16.7663 201.353 16.994 201.105 17.2317C200.863 17.4694 200.68 17.7417 200.556 18.0487C200.432 18.3508 200.37 18.7221 200.37 19.1628L200.37 19.4673L197.206 19.4673ZM198.848 24.3397C198.313 24.3397 197.855 24.1515 197.473 23.7752C197.097 23.3989 196.911 22.9434 196.916 22.4086C196.911 21.8837 197.097 21.4356 197.473 21.0642C197.855 20.6879 198.313 20.4998 198.848 20.4998C199.358 20.4998 199.806 20.6879 200.192 21.0642C200.578 21.4356 200.774 21.8837 200.779 22.4086C200.774 22.7651 200.68 23.0894 200.496 23.3816C200.318 23.6737 200.083 23.9064 199.791 24.0797C199.504 24.2531 199.189 24.3397 198.848 24.3397Z" fill="rgb(142,143,158)" fill-rule="nonzero" />
		</g>
		<path id="Line 52" d="M0 0L12.8154 6.12323e-17" stroke="rgb(142,143,158)" stroke-width="4.01876307" transform="matrix(6.13892e-17,1,-1,6.10759e-17,84.3828,67.508)" />
		<path id="Line 53" d="M0 0L9.87417 0" stroke="rgb(142,143,158)" stroke-width="4.01876307" transform="matrix(6.13892e-17,1,-1,6.10759e-17,96.4844,70.4492)" />
		<path id="Line 54" d="M0 -2.00938L10.6677 -2.00938L10.6677 2.00938L0 2.00938L0 -2.00938ZM10.6477 -1.98938L10.6677 -2.00938C11.793 -2.00938 12.6771 -1.12525 12.6771 0C12.6771 1.12525 11.793 2.00938 10.6677 2.00938L10.6477 1.98938L10.6477 -1.98938Z" fill="rgb(142,143,158)" fill-rule="nonzero" transform="matrix(0.568406,0.822748,-0.568406,0.822748,117.93,83.6139)" />
		<line id="Line 55" x1="0" x2="10.6677408" y1="0" y2="0" stroke="rgb(142,143,158)" stroke-width="4.01876307" transform="matrix(0.568406,0.822748,-0.568406,0.822748,118.531,99.5138)" />
		<g id="Group 97">
			<g id="Group 96">
				<rect id="Rectangle 12419" width="22.063484" height="22.063484" x="207.804688" y="71.415527" rx="2.987928" fill="rgb(217,217,217)" fill-opacity="0" />
				<rect id="Rectangle 12419" width="18.044722" height="18.044722" x="209.814072" y="73.424911" rx="0.978547" stroke="rgb(142,143,158)" stroke-width="4.01876307" />
				<path id="Vector" d="M219.563 87.1448L215.109 82.6915L216.223 81.5781L219.563 84.9181L226.731 77.7498L227.844 78.8632L219.563 87.1448Z" fill="rgb(142,143,158)" fill-rule="nonzero" />
				<path id="Vector" d="M215.109 82.6915L216.223 81.5781L219.563 84.9181L226.731 77.7498L227.844 78.8632L219.563 87.1448L215.109 82.6915Z" fill-rule="nonzero" stroke="rgb(142,143,158)" stroke-width="1.49396408" />
			</g>
		</g>
		<g id="Group 109">
			<g id="Group 96">
				<rect id="Rectangle 12419" width="22.063484" height="22.063484" x="207.757812" y="47.326843" rx="2.987928" fill="rgb(217,217,217)" fill-opacity="0" />
				<rect id="Rectangle 12419" width="18.044722" height="18.044722" x="209.767197" y="49.336224" rx="0.978547" stroke="rgb(142,143,158)" stroke-width="4.01876307" />
				<path id="Vector" d="M219.516 63.056L215.062 58.6027L216.176 57.4894L219.516 60.8294L226.684 53.6611L227.797 54.7744L219.516 63.056Z" fill="rgb(142,143,158)" fill-rule="nonzero" />
				<path id="Vector" d="M215.062 58.6027L216.176 57.4894L219.516 60.8294L226.684 53.6611L227.797 54.7744L219.516 63.056L215.062 58.6027Z" fill-rule="nonzero" stroke="rgb(142,143,158)" stroke-width="1.49396408" />
			</g>
		</g>
		<path id="Vector 11" d="M171.773 114.881L216.431 114.881C218.081 114.881 219.419 113.543 219.419 111.893L219.419 98.1323" stroke="rgb(142,143,158)" stroke-linecap="round" stroke-linejoin="round" stroke-dasharray="0 7.46982 " stroke-width="4.01876307" />
		<path id="Vector 13" d="M11.2091 0.0200005L11.1891 0C11.1891 -1.12525 12.0732 -2.00938 13.1985 -2.00938C14.3237 -2.00938 15.2078 -1.12525 15.2078 0L15.1878 0.0200005L11.2091 0.0200005Z" fill="rgb(142,143,158)" fill-rule="nonzero" transform="matrix(-1,0,0,1,46.9844,83.6139)" />
		<g id="Group 106">
			<g id="Group 99">
				<rect id="Rectangle 12421" width="26.777622" height="15.728336" x="20.415632" y="63.681805" rx="-0.515418" stroke="rgb(142,143,158)" stroke-width="4.01876307" />
				<path id="Vector 10" d="M20.9766 63.7734L33.6286 72.1871C34.1297 72.5204 34.7819 72.5204 35.2831 72.1871L47.9351 63.7734" stroke="rgb(142,143,158)" stroke-linecap="round" stroke-linejoin="round" stroke-width="4.01876307" />
			</g>
			<circle id="Ellipse 77" cx="45.9422874" cy="64.7854919" r="8.4813509" fill="rgb(245,245,245)" />
			<circle id="Ellipse 77" cx="45.9422874" cy="64.7854919" r="6.4719696" stroke="rgb(142,143,158)" stroke-width="4.01876307" />
		</g>
		<path id="Rectangle 12422" d="M115.09 79.2258C117.565 79.2258 119.572 81.2324 119.572 83.7077L119.572 138.467L64.5781 138.467L64.5781 83.7077C64.5781 81.2324 66.5847 79.2258 69.06 79.2258L115.09 79.2258Z" fill="rgb(217,217,217)" fill-opacity="0" fill-rule="evenodd" />
		<path id="Rectangle 12422" d="M119.572 83.7077C119.572 81.2324 117.565 79.2258 115.09 79.2258L69.06 79.2258C66.5847 79.2258 64.5781 81.2324 64.5781 83.7077L64.5781 138.467L119.572 138.467L119.572 83.7077ZM115.553 134.448L115.553 83.7077C115.553 83.5533 115.514 83.4375 115.437 83.3603C115.36 83.2831 115.244 83.2445 115.09 83.2445L69.06 83.2445C68.9056 83.2445 68.7899 83.2831 68.7127 83.3603C68.6355 83.4375 68.5969 83.5533 68.5969 83.7077L68.5969 134.448L115.553 134.448Z" fill="rgb(142,143,158)" fill-rule="evenodd" />
		<rect id="Rectangle 12426" width="37.395615" height="52.658928" x="76.382812" y="19.984253" rx="16.433603" fill="rgb(217,217,217)" fill-opacity="0" />
		<rect id="Rectangle 12426" width="33.376850" height="48.640163" x="78.392197" y="21.993635" rx="14.424222" stroke="rgb(142,143,158)" stroke-width="4.01876307" />
		<path id="Line 56" d="M0 0C3.12951 2.42921 6.95446 3.4703 10.084 2.42921" stroke="rgb(142,143,158)" stroke-width="4.01876307" transform="matrix(0.948925,0.3155,-0.316956,0.94844,79.9922,57.9847)" />
		<path id="Subtract" d="M121.767 25.866L121.767 15.4094L78.3268 15.4094C76.6766 15.4094 75.3388 16.7472 75.3388 18.3974L75.3388 19.9847L74.1676 19.9847C72.5174 19.9847 71.1797 21.3225 71.1797 22.9726L71.1797 45.7801C72.7519 44.7314 74.642 44.1199 76.6753 44.1199C81.731 44.1199 85.9015 47.9003 86.5004 52.7817C86.5511 52.5636 86.5779 52.3363 86.5779 52.1027L86.5779 33.3359L114.298 33.3359C118.423 33.3359 121.767 29.9915 121.767 25.866Z" fill="rgb(245,245,245)" fill-rule="evenodd" />
		<path id="Subtract" d="M121.767 15.4094L121.767 25.866C121.767 29.9915 118.423 33.3359 114.298 33.3359L86.5779 33.3359L86.5779 52.1027C86.5779 52.3363 86.5511 52.5636 86.5004 52.7817C85.9015 47.9003 81.731 44.1199 76.6753 44.1199C74.642 44.1199 72.7519 44.7314 71.1797 45.7801L71.1797 22.9726C71.1797 21.3225 72.5174 19.9847 74.1676 19.9847L75.3388 19.9847L75.3388 18.3974C75.3388 16.7472 76.6766 15.4094 78.3268 15.4094L121.767 15.4094ZM117.749 19.4282L79.3576 19.4282L79.3576 24.0035L75.1984 24.0035L75.1984 40.1747Q75.9255 40.1011 76.6753 40.1011Q78.11 40.1011 79.4866 40.3837Q80.6186 40.6161 81.7114 41.0397C81.9992 41.1512 82.2818 41.2714 82.5591 41.4003L82.5591 29.3171L114.298 29.3171Q115.012 29.3171 115.622 29.0644Q116.232 28.8117 116.738 28.3063Q117.243 27.8009 117.496 27.1909Q117.749 26.5808 117.749 25.866L117.749 19.4282Z" fill="rgb(142,143,158)" fill-rule="evenodd" />
		<ellipse id="Ellipse 70" rx="9.898838" ry="9.873549" cx="78.1800842" cy="49.7453766" fill="rgb(245,245,245)" />
		<ellipse id="Ellipse 70" rx="7.889457" ry="7.864168" cx="78.1800842" cy="49.7453766" stroke="rgb(142,143,158)" stroke-width="4.01876307" />
		<path id="Rectangle 12418" d="M117.306 66.0611L190.017 66.0611C192.115 66.0611 193.559 68.1665 192.805 70.124L173.111 121.195C172.667 122.348 171.559 123.108 170.324 123.108L99.5825 123.108C97.5276 123.108 96.086 121.082 96.7597 119.141L114.484 68.0694C114.901 66.8671 116.034 66.0611 117.306 66.0611Z" fill="rgb(245,245,245)" fill-rule="nonzero" />
		<path id="Rectangle 12418" d="M190.017 66.0611L117.306 66.0611C116.034 66.0611 114.901 66.8671 114.484 68.0694L96.7597 119.141C96.086 121.082 97.5276 123.108 99.5825 123.108L170.324 123.108C171.559 123.108 172.667 122.348 173.111 121.195L192.805 70.124C193.559 68.1665 192.115 66.0611 190.017 66.0611ZM188.514 70.0799L118.04 70.0799L101.031 119.09L169.616 119.09L188.514 70.0799Z" fill="rgb(142,143,158)" fill-rule="evenodd" />
		<path id="Vector 7" d="M55.7908 125.302L88.3647 125.302L88.3647 137.37L68.9893 137.37L43.6922 137.37C43.6922 137.37 37.093 135.176 40.3926 128.593L66.6481 82.4468L66.6481 109.943L55.7908 125.302Z" fill="rgb(245,245,245)" fill-rule="evenodd" />
		<path id="Vector 7" d="M55.7908 125.302L66.6481 109.943L66.6481 82.4468L40.3926 128.593C37.093 135.176 43.6922 137.37 43.6922 137.37L68.9893 137.37L88.3647 137.37L88.3647 125.302L55.7908 125.302Z" fill-rule="evenodd" stroke="rgb(142,143,158)" stroke-linejoin="round" stroke-width="4.01876307" />
		<rect id="Rectangle 12420" width="13.198452" height="30.717705" x="134.984375" y="107.749023" fill="rgb(245,245,245)" />
		<rect id="Rectangle 12420" width="9.179689" height="26.698942" x="136.993759" y="109.758408" stroke="rgb(142,143,158)" stroke-width="4.01876307" />
	</g>
</svg>
