<svg width="137" height="36" viewBox="0 0 137 36" fill="none" xmlns="http://www.w3.org/2000/svg">
<path fill-rule="evenodd" clip-rule="evenodd" d="M97.8776 35.1282C100.741 35.1123 103.801 34.6974 106.744 32.6122V23.2504C105.014 25.0377 102.316 26.8356 98.9633 26.8356C94.4023 26.8409 90.5704 23.6707 90.5704 17.8408C90.5757 12.6493 93.6519 8.32478 98.9739 8.31414C102.912 8.31414 105.536 10.8567 106.755 12.2876V2.63324C103.977 0.766204 100.714 -0.0157185 97.7924 0.000239077C89.3197 0.00555827 81.0332 5.98965 81.0226 17.5855C81.012 28.7292 88.5586 35.1282 97.8776 35.1282ZM13.832 0.943736H12.741L0 0.959695V34.1355H9.12733L9.13797 23.2737H13.7841C23.3053 23.2631 25.8439 16.4971 25.8439 12.1034C25.8439 7.70975 23.3319 0.92778 13.832 0.938418V0.943736ZM13.369 15.8322C13.1615 15.9013 12.9645 15.9226 12.7517 15.9439H9.18055V8.31082H11.7937C12.1449 8.31082 12.5654 8.3321 12.8049 8.35869C15.913 8.61402 16.2642 10.6991 16.2642 12.1513C16.2642 12.9864 16.1897 15.2045 13.369 15.8322ZM28.5258 34.1394V0.96355H48.3079V8.98489H37.7383V13.6605H47.2701V20.9903L37.7383 21.001V26.2563H48.2866V34.1394H28.5258ZM137.01 22.7126C137.02 15.9413 132.614 10.3774 123.417 10.404C114.242 10.404 109.803 15.9626 109.798 22.7233C109.782 29.7127 114.343 34.9787 123.396 34.9734C132.582 34.9734 137.01 29.4733 137.01 22.7126ZM128.457 22.7126C128.457 23.5903 128.377 29.0584 123.407 29.0584C118.409 29.0584 118.356 23.5956 118.351 22.7126C118.361 19.053 119.995 16.3668 123.417 16.3562C126.77 16.3668 128.473 19.0317 128.462 22.7126H128.457ZM79.0698 12.1122C79.0698 15.5484 77.5317 20.4154 72.3267 22.3729L80.4855 34.1389H69.389L65.6795 28.474L62.4171 23.2771H62.4064L62.3905 34.1389H53.2259V0.963126H66.8557C66.893 0.963126 66.9374 0.962814 66.9882 0.962457C67.2339 0.96073 67.6291 0.957953 68.101 0.984403C76.7494 1.48441 79.0698 7.92063 79.0698 12.1122ZM65.9775 15.9633C66.1904 15.942 66.3873 15.9207 66.5949 15.8516C69.4156 15.2239 69.4901 13.0058 69.4901 12.1707C69.4901 10.7185 69.1388 8.6334 66.0307 8.37808C65.7966 8.35149 65.3708 8.33021 65.0196 8.33021H62.4064V15.9633H65.9775Z" fill="white"/>
</svg>
